<?xml version="1.0" encoding="UTF-8" standalone="no"?>
<!-- Created with Inkscape (http://www.inkscape.org/) -->
<svg
   xmlns:dc="http://purl.org/dc/elements/1.1/"
   xmlns:cc="http://creativecommons.org/ns#"
   xmlns:rdf="http://www.w3.org/1999/02/22-rdf-syntax-ns#"
   xmlns:svg="http://www.w3.org/2000/svg"
   xmlns="http://www.w3.org/2000/svg"
   xmlns:sodipodi="http://sodipodi.sourceforge.net/DTD/sodipodi-0.dtd"
   xmlns:inkscape="http://www.inkscape.org/namespaces/inkscape"
   width="35.433071"
   height="35.433071"
   id="svg2929"
   sodipodi:version="0.32"
   inkscape:version="0.46"
   version="1.0"
   sodipodi:docname="E06 - Augenspüleinrichtung.svg"
   inkscape:output_extension="org.inkscape.output.svg.inkscape">
  <defs
     id="defs2931">
    <inkscape:perspective
       sodipodi:type="inkscape:persp3d"
       inkscape:vp_x="0 : 526.18109 : 1"
       inkscape:vp_y="0 : 1000 : 0"
       inkscape:vp_z="744.09448 : 526.18109 : 1"
       inkscape:persp3d-origin="372.04724 : 350.78739 : 1"
       id="perspective2937" />
  </defs>
  <sodipodi:namedview
     id="base"
     pagecolor="#ffffff"
     bordercolor="#666666"
     borderopacity="1.0"
     inkscape:pageopacity="0.0"
     inkscape:pageshadow="2"
     inkscape:zoom="7.9195959"
     inkscape:cx="1.7546085"
     inkscape:cy="24.866531"
     inkscape:document-units="px"
     inkscape:current-layer="layer1"
     showgrid="false"
     units="cm"
     inkscape:window-width="640"
     inkscape:window-height="675"
     inkscape:window-x="487"
     inkscape:window-y="105" />
  <metadata
     id="metadata2934">
    <rdf:RDF>
      <cc:Work
         rdf:about="">
        <dc:format>image/svg+xml</dc:format>
        <dc:type
           rdf:resource="http://purl.org/dc/dcmitype/StillImage" />
      </cc:Work>
    </rdf:RDF>
  </metadata>
  <g
     inkscape:label="Ebene 1"
     inkscape:groupmode="layer"
     id="layer1">
    <g
       transform="matrix(1.25,0,0,-1.25,-131.00846,683.47904)"
       id="g2959">
      <path
         id="path4656"
         style="fill:#009263;fill-opacity:1;fill-rule:nonzero;stroke:none"
         d="M 106.32,519.98 L 131.64,519.98 L 131.64,545.24 L 106.32,545.24 L 106.32,519.98 z" />
      <path
         id="path4658"
         style="fill:#ffffff;fill-opacity:1;fill-rule:evenodd;stroke:none"
         d="M 125.46,542.72 L 127.5,542.72 L 127.5,540.92 L 129.24,540.92 L 129.24,538.88 L 127.5,538.88 L 127.5,537.14 L 125.46,537.14 L 125.46,538.88 L 123.72,538.88 L 123.72,540.92 L 125.46,540.92 L 125.46,542.72" />
      <path
         id="path4660"
         style="fill:#ffffff;fill-opacity:1;fill-rule:evenodd;stroke:none"
         d="M 114.54,521 L 116.76,521 L 116.76,525.44 L 116.82,525.68 L 116.82,525.92 L 116.94,526.1 L 117.12,526.22 L 117.3,526.28 L 117.48,526.4 L 117.72,526.4 L 118.02,526.46 L 118.26,526.46 L 118.62,526.58 L 118.8,526.64 L 118.92,526.76 L 119.04,526.88 L 119.28,527.12 L 119.34,527.24 L 119.46,527.42 L 119.52,527.54 L 119.7,528.08 L 119.7,528.5 L 111.54,528.5 L 111.66,527.78 L 111.78,527.48 L 111.96,527.18 L 112.2,526.94 L 112.26,526.82 L 112.44,526.7 L 112.56,526.64 L 112.74,526.58 L 112.92,526.52 L 113.1,526.46 L 113.4,526.46 L 113.7,526.4 L 113.94,526.28 L 114.12,526.22 L 114.3,526.1 L 114.42,525.92 L 114.48,525.68 L 114.54,525.44 L 114.54,521" />
      <path
         id="path4662"
         style="fill:#ffffff;fill-opacity:1;fill-rule:evenodd;stroke:none"
         d="M 112.62,529.52 L 112.74,529.52 L 112.74,529.46 L 112.8,529.46 L 112.86,529.4 L 112.86,529.34 L 112.92,529.28 L 112.92,529.16 L 112.86,529.1 L 112.86,529.04 L 112.68,528.86 L 112.56,528.86 L 112.5,528.92 L 112.44,528.92 L 112.26,529.1 L 112.26,529.34 L 112.38,529.46 L 112.44,529.46 L 112.5,529.52 L 112.62,529.52" />
      <path
         id="path4664"
         style="fill:#ffffff;fill-opacity:1;fill-rule:evenodd;stroke:none"
         d="M 113.64,529.52 L 113.76,529.52 L 113.82,529.46 L 113.88,529.46 L 113.88,529.4 L 113.94,529.34 L 113.94,529.1 L 113.88,529.04 L 113.88,528.98 L 113.82,528.98 L 113.76,528.92 L 113.52,528.92 L 113.46,528.98 L 113.4,528.98 L 113.34,529.04 L 113.34,529.1 L 113.28,529.16 L 113.28,529.28 L 113.34,529.34 L 113.34,529.4 L 113.4,529.46 L 113.46,529.46 L 113.52,529.52 L 113.64,529.52" />
      <path
         id="path4666"
         style="fill:#ffffff;fill-opacity:1;fill-rule:evenodd;stroke:none"
         d="M 114.66,529.52 L 114.78,529.52 L 114.84,529.46 L 114.9,529.4 L 114.96,529.4 L 114.96,529.28 L 115.02,529.16 L 114.96,529.16 L 114.96,529.04 L 114.9,528.98 L 114.84,528.92 L 114.78,528.92 L 114.72,528.86 L 114.6,528.86 L 114.54,528.92 L 114.48,528.92 L 114.42,528.98 L 114.42,529.04 L 114.36,529.1 L 114.36,529.34 L 114.48,529.46 L 114.54,529.52 L 114.66,529.52" />
      <path
         id="path4668"
         style="fill:#ffffff;fill-opacity:1;fill-rule:evenodd;stroke:none"
         d="M 115.68,529.52 L 115.8,529.52 L 115.98,529.34 L 115.98,529.1 L 115.92,529.04 L 115.92,528.98 L 115.86,528.92 L 115.8,528.92 L 115.74,528.86 L 115.62,528.86 L 115.56,528.92 L 115.5,528.92 L 115.44,528.98 L 115.44,529.04 L 115.38,529.1 L 115.38,529.34 L 115.56,529.52 L 115.68,529.52" />
      <path
         id="path4670"
         style="fill:#ffffff;fill-opacity:1;fill-rule:evenodd;stroke:none"
         d="M 116.76,529.52 L 116.82,529.52 L 116.94,529.4 L 117,529.4 L 117,529.34 L 117.06,529.28 L 117.06,529.16 L 117,529.1 L 117,529.04 L 116.88,528.92 L 116.82,528.92 L 116.82,528.86 L 116.7,528.86 L 116.64,528.92 L 116.58,528.92 L 116.46,529.04 L 116.46,529.1 L 116.4,529.16 L 116.4,529.28 L 116.46,529.34 L 116.46,529.4 L 116.52,529.4 L 116.64,529.52 L 116.76,529.52" />
      <path
         id="path4672"
         style="fill:#ffffff;fill-opacity:1;fill-rule:evenodd;stroke:none"
         d="M 117.78,529.52 L 117.9,529.52 L 117.96,529.46 L 117.96,529.4 L 118.02,529.4 L 118.08,529.34 L 118.08,529.1 L 117.96,528.98 L 117.96,528.92 L 117.9,528.92 L 117.84,528.86 L 117.72,528.86 L 117.66,528.92 L 117.6,528.92 L 117.54,528.98 L 117.48,529.04 L 117.48,529.1 L 117.42,529.16 L 117.42,529.28 L 117.48,529.34 L 117.48,529.4 L 117.54,529.4 L 117.66,529.52 L 117.78,529.52" />
      <path
         id="path4674"
         style="fill:#ffffff;fill-opacity:1;fill-rule:evenodd;stroke:none"
         d="M 118.8,529.52 L 118.92,529.52 L 118.98,529.46 L 119.04,529.4 L 119.1,529.34 L 119.1,529.1 L 119.04,529.04 L 119.04,528.98 L 118.98,528.92 L 118.92,528.92 L 118.86,528.86 L 118.74,528.86 L 118.68,528.92 L 118.62,528.92 L 118.5,529.04 L 118.5,529.1 L 118.44,529.16 L 118.44,529.28 L 118.5,529.34 L 118.5,529.4 L 118.56,529.4 L 118.62,529.46 L 118.68,529.52 L 118.8,529.52" />
      <path
         id="path4676"
         style="fill:#ffffff;fill-opacity:1;fill-rule:evenodd;stroke:none"
         d="M 112.62,530.48 L 112.74,530.48 L 112.86,530.36 L 112.92,530.3 L 112.92,530.06 L 112.86,530 L 112.86,529.94 L 112.8,529.88 L 112.74,529.88 L 112.68,529.82 L 112.56,529.82 L 112.5,529.88 L 112.44,529.88 L 112.32,530 L 112.32,530.12 L 112.26,530.18 L 112.32,530.18 L 112.32,530.36 L 112.38,530.36 L 112.5,530.48 L 112.62,530.48" />
      <path
         id="path4678"
         style="fill:#ffffff;fill-opacity:1;fill-rule:evenodd;stroke:none"
         d="M 113.64,530.48 L 113.76,530.48 L 113.88,530.36 L 113.94,530.3 L 113.94,530.06 L 113.88,530 L 113.88,529.94 L 113.82,529.88 L 113.76,529.88 L 113.7,529.82 L 113.58,529.82 L 113.52,529.88 L 113.46,529.88 L 113.4,529.94 L 113.34,530 L 113.34,530.36 L 113.4,530.36 L 113.52,530.48 L 113.64,530.48" />
      <path
         id="path4680"
         style="fill:#ffffff;fill-opacity:1;fill-rule:evenodd;stroke:none"
         d="M 114.66,530.48 L 114.78,530.48 L 114.78,530.42 L 114.84,530.36 L 114.9,530.36 L 114.9,530.3 L 114.96,530.18 L 114.96,530.12 L 114.9,530.06 L 114.9,530 L 114.84,529.94 L 114.72,529.82 L 114.54,529.82 L 114.48,529.88 L 114.42,529.88 L 114.42,529.94 L 114.3,530.06 L 114.3,530.3 L 114.36,530.36 L 114.42,530.36 L 114.42,530.42 L 114.48,530.48 L 114.66,530.48" />
      <path
         id="path4682"
         style="fill:#ffffff;fill-opacity:1;fill-rule:evenodd;stroke:none"
         d="M 115.68,530.48 L 115.8,530.48 L 115.8,530.42 L 115.86,530.36 L 115.92,530.36 L 115.92,530.3 L 115.98,530.18 L 115.98,530.12 L 115.92,530.06 L 115.92,530 L 115.74,529.82 L 115.62,529.82 L 115.56,529.88 L 115.5,529.88 L 115.32,530.06 L 115.32,530.3 L 115.38,530.36 L 115.44,530.36 L 115.56,530.48 L 115.68,530.48" />
      <path
         id="path4684"
         style="fill:#ffffff;fill-opacity:1;fill-rule:evenodd;stroke:none"
         d="M 116.64,530.48 L 116.82,530.48 L 116.82,530.42 L 116.88,530.36 L 116.94,530.36 L 116.94,530.3 L 117,530.18 L 117,530.12 L 116.94,530.06 L 116.94,530 L 116.76,529.82 L 116.58,529.82 L 116.52,529.88 L 116.46,529.88 L 116.4,529.94 L 116.4,530 L 116.34,530.06 L 116.34,530.3 L 116.4,530.36 L 116.52,530.48 L 116.64,530.48" />
      <path
         id="path4686"
         style="fill:#ffffff;fill-opacity:1;fill-rule:evenodd;stroke:none"
         d="M 117.72,530.48 L 117.84,530.48 L 117.84,530.42 L 117.9,530.36 L 117.96,530.36 L 117.96,530.3 L 118.02,530.18 L 118.02,530.12 L 117.96,530.06 L 117.96,530 L 117.9,529.94 L 117.84,529.88 L 117.78,529.82 L 117.6,529.82 L 117.54,529.88 L 117.48,529.88 L 117.48,529.94 L 117.36,530.06 L 117.36,530.3 L 117.42,530.36 L 117.48,530.36 L 117.48,530.42 L 117.54,530.48 L 117.72,530.48" />
      <path
         id="path4688"
         style="fill:#ffffff;fill-opacity:1;fill-rule:evenodd;stroke:none"
         d="M 118.74,530.48 L 118.86,530.48 L 118.86,530.42 L 118.92,530.36 L 118.98,530.36 L 118.98,530.3 L 119.04,530.18 L 119.04,530.12 L 118.98,530.06 L 118.98,530 L 118.8,529.82 L 118.68,529.82 L 118.62,529.88 L 118.56,529.88 L 118.38,530.06 L 118.38,530.3 L 118.44,530.36 L 118.5,530.36 L 118.62,530.48 L 118.74,530.48" />
      <path
         id="path4690"
         style="fill:#ffffff;fill-opacity:1;fill-rule:evenodd;stroke:none"
         d="M 119.04,531.56 L 119.16,531.56 L 119.34,531.38 L 119.34,531.14 L 119.28,531.08 L 119.28,531.02 L 119.22,530.96 L 119.16,530.96 L 119.1,530.9 L 118.92,530.9 L 118.74,531.08 L 118.74,531.14 L 118.68,531.2 L 118.68,531.32 L 118.74,531.38 L 118.74,531.44 L 118.8,531.44 L 118.86,531.5 L 118.86,531.56 L 119.04,531.56" />
      <path
         id="path4692"
         style="fill:#ffffff;fill-opacity:1;fill-rule:evenodd;stroke:none"
         d="M 117.96,531.56 L 118.08,531.56 L 118.2,531.44 L 118.26,531.44 L 118.26,531.38 L 118.32,531.32 L 118.32,531.2 L 118.26,531.14 L 118.26,531.08 L 118.2,531.02 L 118.14,530.96 L 118.08,530.96 L 118.02,530.9 L 117.9,530.9 L 117.84,530.96 L 117.78,530.96 L 117.78,531.02 L 117.66,531.14 L 117.66,531.38 L 117.72,531.44 L 117.78,531.44 L 117.78,531.5 L 117.84,531.56 L 117.96,531.56" />
      <path
         id="path4694"
         style="fill:#ffffff;fill-opacity:1;fill-rule:evenodd;stroke:none"
         d="M 116.82,531.56 L 116.94,531.56 L 117.12,531.38 L 117.12,531.14 L 117.06,531.08 L 117.06,531.02 L 117,530.96 L 116.94,530.96 L 116.88,530.9 L 116.76,530.9 L 116.7,530.96 L 116.64,530.96 L 116.58,531.02 L 116.58,531.08 L 116.52,531.14 L 116.52,531.38 L 116.7,531.56 L 116.82,531.56" />
      <path
         id="path4696"
         style="fill:#ffffff;fill-opacity:1;fill-rule:evenodd;stroke:none"
         d="M 115.68,531.56 L 115.8,531.56 L 115.8,531.5 L 115.86,531.44 L 115.92,531.44 L 115.92,531.38 L 115.98,531.32 L 115.98,531.2 L 115.92,531.14 L 115.92,531.08 L 115.74,530.9 L 115.62,530.9 L 115.56,530.96 L 115.5,530.96 L 115.32,531.14 L 115.32,531.38 L 115.38,531.44 L 115.44,531.44 L 115.56,531.56 L 115.68,531.56" />
      <path
         id="path4698"
         style="fill:#ffffff;fill-opacity:1;fill-rule:evenodd;stroke:none"
         d="M 114.48,531.56 L 114.66,531.56 L 114.72,531.5 L 114.72,531.44 L 114.78,531.44 L 114.78,531.32 L 114.84,531.2 L 114.78,531.2 L 114.78,531.08 L 114.72,531.02 L 114.72,530.96 L 114.66,530.96 L 114.6,530.9 L 114.42,530.9 L 114.36,530.96 L 114.3,530.96 L 114.24,531.02 L 114.24,531.14 L 114.18,531.2 L 114.18,531.32 L 114.24,531.38 L 114.24,531.44 L 114.36,531.56 L 114.48,531.56" />
      <path
         id="path4700"
         style="fill:#ffffff;fill-opacity:1;fill-rule:evenodd;stroke:none"
         d="M 113.34,531.56 L 113.46,531.56 L 113.58,531.44 L 113.64,531.44 L 113.64,531.32 L 113.7,531.2 L 113.64,531.2 L 113.64,531.08 L 113.52,530.96 L 113.46,530.96 L 113.4,530.9 L 113.28,530.9 L 113.22,530.96 L 113.16,530.96 L 113.1,531.02 L 113.1,531.08 L 113.04,531.14 L 113.04,531.38 L 113.22,531.56 L 113.34,531.56" />
      <path
         id="path4702"
         style="fill:#ffffff;fill-opacity:1;fill-rule:evenodd;stroke:none"
         d="M 112.26,531.56 L 112.44,531.56 L 112.5,531.5 L 112.5,531.44 L 112.56,531.44 L 112.62,531.38 L 112.62,531.14 L 112.5,531.02 L 112.5,530.96 L 112.44,530.96 L 112.38,530.9 L 112.2,530.9 L 112.2,530.96 L 112.14,530.96 L 112.02,531.08 L 112.02,531.14 L 111.96,531.2 L 111.96,531.32 L 112.02,531.38 L 112.02,531.44 L 112.08,531.44 L 112.2,531.56 L 112.26,531.56" />
      <path
         id="path4704"
         style="fill:#ffffff;fill-opacity:1;fill-rule:evenodd;stroke:none"
         d="M 119.28,532.46 L 119.4,532.46 L 119.46,532.4 L 119.52,532.4 L 119.52,532.34 L 119.58,532.28 L 119.58,532.04 L 119.52,531.98 L 119.52,531.92 L 119.46,531.92 L 119.4,531.86 L 119.16,531.86 L 119.1,531.92 L 119.04,531.92 L 119.04,531.98 L 118.98,532.04 L 118.98,532.28 L 119.04,532.34 L 119.04,532.4 L 119.1,532.4 L 119.16,532.46 L 119.28,532.46" />
      <path
         id="path4706"
         style="fill:#ffffff;fill-opacity:1;fill-rule:evenodd;stroke:none"
         d="M 118.32,532.46 L 118.38,532.46 L 118.44,532.4 L 118.5,532.4 L 118.56,532.34 L 118.56,532.28 L 118.62,532.22 L 118.62,532.1 L 118.56,532.04 L 118.56,531.98 L 118.5,531.92 L 118.44,531.92 L 118.38,531.86 L 118.14,531.86 L 117.96,532.04 L 117.96,532.28 L 118.14,532.46 L 118.32,532.46" />
      <path
         id="path4708"
         style="fill:#ffffff;fill-opacity:1;fill-rule:evenodd;stroke:none"
         d="M 116.94,532.46 L 117.12,532.46 L 117.18,532.4 L 117.3,532.28 L 117.3,532.04 L 117.18,531.92 L 117.12,531.86 L 116.82,531.86 L 116.82,531.92 L 116.76,531.92 L 116.7,531.98 L 116.7,532.04 L 116.64,532.1 L 116.64,532.22 L 116.7,532.28 L 116.7,532.34 L 116.76,532.4 L 116.82,532.4 L 116.82,532.46 L 116.94,532.46" />
      <path
         id="path4710"
         style="fill:#ffffff;fill-opacity:1;fill-rule:evenodd;stroke:none"
         d="M 115.68,532.46 L 115.8,532.46 L 115.98,532.28 L 115.98,532.04 L 115.8,531.86 L 115.56,531.86 L 115.5,531.92 L 115.44,531.92 L 115.38,531.98 L 115.38,532.04 L 115.32,532.1 L 115.32,532.22 L 115.38,532.28 L 115.38,532.34 L 115.44,532.4 L 115.5,532.4 L 115.56,532.46 L 115.68,532.46" />
      <path
         id="path4712"
         style="fill:#ffffff;fill-opacity:1;fill-rule:evenodd;stroke:none"
         d="M 114.36,532.46 L 114.48,532.46 L 114.54,532.4 L 114.6,532.4 L 114.66,532.34 L 114.66,532.28 L 114.72,532.22 L 114.72,532.1 L 114.66,532.04 L 114.66,531.98 L 114.6,531.92 L 114.54,531.92 L 114.48,531.86 L 114.24,531.86 L 114.18,531.92 L 114.12,531.98 L 114.06,532.04 L 114.06,532.28 L 114.12,532.34 L 114.18,532.4 L 114.24,532.46 L 114.36,532.46" />
      <path
         id="path4714"
         style="fill:#ffffff;fill-opacity:1;fill-rule:evenodd;stroke:none"
         d="M 113.04,532.46 L 113.16,532.46 L 113.28,532.34 L 113.28,532.28 L 113.34,532.22 L 113.34,532.1 L 113.28,532.04 L 113.28,531.98 L 113.16,531.86 L 112.92,531.86 L 112.86,531.92 L 112.8,531.92 L 112.74,531.98 L 112.74,532.34 L 112.8,532.4 L 112.86,532.4 L 112.92,532.46 L 113.04,532.46" />
      <path
         id="path4716"
         style="fill:#ffffff;fill-opacity:1;fill-rule:evenodd;stroke:none"
         d="M 111.96,532.46 L 112.14,532.46 L 112.2,532.4 L 112.26,532.34 L 112.26,532.22 L 112.32,532.16 L 112.26,532.1 L 112.26,531.98 L 112.2,531.92 L 112.14,531.86 L 111.84,531.86 L 111.78,531.92 L 111.72,531.92 L 111.72,532.04 L 111.66,532.1 L 111.66,532.22 L 111.72,532.28 L 111.72,532.4 L 111.78,532.4 L 111.84,532.46 L 111.96,532.46" />
      <path
         id="path4718"
         style="fill:#ffffff;fill-opacity:1;fill-rule:evenodd;stroke:none"
         d="M 111.6,533.66 L 111.72,533.66 L 111.84,533.54 L 111.9,533.48 L 111.9,533.24 L 111.84,533.18 L 111.78,533.12 L 111.78,533.06 L 111.72,533.06 L 111.66,533 L 111.54,533 L 111.48,533.06 L 111.42,533.06 L 111.3,533.18 L 111.3,533.24 L 111.24,533.24 L 111.24,533.42 L 111.3,533.48 L 111.3,533.54 L 111.36,533.6 L 111.42,533.6 L 111.48,533.66 L 111.6,533.66" />
      <path
         id="path4720"
         style="fill:#ffffff;fill-opacity:1;fill-rule:evenodd;stroke:none"
         d="M 112.86,533.66 L 113.04,533.66 L 113.22,533.48 L 113.22,533.24 L 113.16,533.18 L 113.1,533.12 L 113.1,533.06 L 113.04,533.06 L 112.92,533 L 112.8,533 L 112.68,533.12 L 112.62,533.18 L 112.62,533.24 L 112.56,533.24 L 112.56,533.42 L 112.62,533.48 L 112.62,533.54 L 112.68,533.6 L 112.74,533.6 L 112.74,533.66 L 112.86,533.66" />
      <path
         id="path4722"
         style="fill:#ffffff;fill-opacity:1;fill-rule:evenodd;stroke:none"
         d="M 114.36,533.66 L 114.48,533.66 L 114.54,533.6 L 114.6,533.6 L 114.6,533.54 L 114.66,533.48 L 114.66,533.24 L 114.6,533.18 L 114.6,533.12 L 114.54,533.06 L 114.48,533.06 L 114.42,533 L 114.3,533 L 114.24,533.06 L 114.18,533.06 L 114.12,533.12 L 114.06,533.18 L 114.06,533.24 L 114,533.36 L 114.06,533.42 L 114.06,533.54 L 114.12,533.6 L 114.18,533.6 L 114.24,533.66 L 114.36,533.66" />
      <path
         id="path4724"
         style="fill:#ffffff;fill-opacity:1;fill-rule:evenodd;stroke:none"
         d="M 115.68,533.66 L 115.8,533.66 L 115.8,533.6 L 115.86,533.6 L 115.92,533.54 L 115.92,533.48 L 115.98,533.42 L 115.98,533.24 L 115.92,533.24 L 115.92,533.18 L 115.74,533 L 115.62,533 L 115.56,533.06 L 115.5,533.06 L 115.38,533.18 L 115.32,533.24 L 115.32,533.48 L 115.44,533.6 L 115.5,533.6 L 115.56,533.66 L 115.68,533.66" />
      <path
         id="path4726"
         style="fill:#ffffff;fill-opacity:1;fill-rule:evenodd;stroke:none"
         d="M 116.94,533.66 L 117.12,533.66 L 117.18,533.6 L 117.3,533.48 L 117.3,533.24 L 117.24,533.18 L 117.18,533.12 L 117.18,533.06 L 117.12,533.06 L 117.06,533 L 116.88,533 L 116.76,533.12 L 116.7,533.18 L 116.7,533.24 L 116.64,533.24 L 116.64,533.42 L 116.7,533.48 L 116.7,533.54 L 116.76,533.6 L 116.82,533.6 L 116.82,533.66 L 116.94,533.66" />
      <path
         id="path4728"
         style="fill:#ffffff;fill-opacity:1;fill-rule:evenodd;stroke:none"
         d="M 118.38,533.66 L 118.5,533.66 L 118.56,533.6 L 118.62,533.6 L 118.68,533.54 L 118.68,533.48 L 118.74,533.42 L 118.74,533.24 L 118.68,533.24 L 118.68,533.18 L 118.62,533.12 L 118.56,533.06 L 118.5,533.06 L 118.44,533 L 118.32,533 L 118.32,533.06 L 118.26,533.06 L 118.2,533.12 L 118.14,533.18 L 118.08,533.24 L 118.08,533.48 L 118.2,533.6 L 118.26,533.6 L 118.32,533.66 L 118.38,533.66" />
      <path
         id="path4730"
         style="fill:#ffffff;fill-opacity:1;fill-rule:evenodd;stroke:none"
         d="M 119.7,533.66 L 119.82,533.66 L 119.88,533.6 L 119.94,533.6 L 120,533.54 L 120,533.18 L 119.88,533.06 L 119.82,533.06 L 119.76,533 L 119.64,533 L 119.58,533.06 L 119.52,533.06 L 119.46,533.12 L 119.46,533.18 L 119.4,533.24 L 119.4,533.48 L 119.46,533.54 L 119.46,533.6 L 119.52,533.6 L 119.58,533.66 L 119.7,533.66" />
      <path
         id="path4732"
         style="fill:#ffffff;fill-opacity:1;fill-rule:evenodd;stroke:none"
         d="M 120.42,535.04 L 120.48,535.04 L 120.54,534.98 L 120.6,534.98 L 120.72,534.86 L 120.72,534.8 L 120.78,534.8 L 120.78,534.62 L 120.72,534.56 L 120.72,534.5 L 120.66,534.5 L 120.54,534.38 L 120.3,534.38 L 120.18,534.5 L 120.12,534.56 L 120.12,534.8 L 120.18,534.86 L 120.18,534.92 L 120.24,534.98 L 120.3,534.98 L 120.36,535.04 L 120.42,535.04" />
      <path
         id="path4734"
         style="fill:#ffffff;fill-opacity:1;fill-rule:evenodd;stroke:none"
         d="M 118.86,535.04 L 118.92,535.04 L 118.98,534.98 L 119.04,534.98 L 119.04,534.92 L 119.1,534.86 L 119.16,534.8 L 119.16,534.56 L 119.1,534.5 L 119.04,534.5 L 119.04,534.44 L 118.98,534.38 L 118.74,534.38 L 118.68,534.44 L 118.62,534.5 L 118.56,534.5 L 118.56,534.56 L 118.5,534.62 L 118.5,534.8 L 118.56,534.8 L 118.56,534.86 L 118.62,534.92 L 118.68,534.98 L 118.74,534.98 L 118.8,535.04 L 118.86,535.04" />
      <path
         id="path4736"
         style="fill:#ffffff;fill-opacity:1;fill-rule:evenodd;stroke:none"
         d="M 117.3,535.04 L 117.36,534.98 L 117.42,534.98 L 117.48,534.92 L 117.54,534.86 L 117.54,534.8 L 117.6,534.8 L 117.6,534.62 L 117.54,534.56 L 117.54,534.5 L 117.48,534.5 L 117.36,534.38 L 117.12,534.38 L 117.06,534.44 L 117.06,534.5 L 117,534.5 L 116.94,534.56 L 116.94,534.8 L 117,534.86 L 117.06,534.92 L 117.06,534.98 L 117.12,534.98 L 117.18,535.04 L 117.3,535.04" />
      <path
         id="path4738"
         style="fill:#ffffff;fill-opacity:1;fill-rule:evenodd;stroke:none"
         d="M 115.68,535.04 L 115.74,535.04 L 115.92,534.86 L 115.92,534.8 L 115.98,534.8 L 115.98,534.62 L 115.92,534.56 L 115.92,534.5 L 115.86,534.5 L 115.8,534.44 L 115.8,534.38 L 115.5,534.38 L 115.44,534.44 L 115.44,534.5 L 115.38,534.5 L 115.32,534.56 L 115.32,534.8 L 115.38,534.86 L 115.44,534.92 L 115.44,534.98 L 115.5,534.98 L 115.56,535.04 L 115.68,535.04" />
      <path
         id="path4740"
         style="fill:#ffffff;fill-opacity:1;fill-rule:evenodd;stroke:none"
         d="M 114.06,535.04 L 114.12,535.04 L 114.18,534.98 L 114.24,534.98 L 114.3,534.92 L 114.3,534.86 L 114.36,534.8 L 114.36,534.56 L 114.18,534.38 L 113.94,534.38 L 113.82,534.5 L 113.76,534.5 L 113.76,534.86 L 113.88,534.98 L 113.94,534.98 L 114,535.04 L 114.06,535.04" />
      <path
         id="path4742"
         style="fill:#ffffff;fill-opacity:1;fill-rule:evenodd;stroke:none"
         d="M 112.44,535.04 L 112.5,535.04 L 112.56,534.98 L 112.62,534.98 L 112.68,534.92 L 112.68,534.86 L 112.74,534.8 L 112.74,534.56 L 112.68,534.5 L 112.62,534.44 L 112.56,534.38 L 112.32,534.38 L 112.26,534.44 L 112.2,534.5 L 112.14,534.56 L 112.14,534.8 L 112.2,534.86 L 112.2,534.92 L 112.26,534.98 L 112.32,534.98 L 112.38,535.04 L 112.44,535.04" />
      <path
         id="path4744"
         style="fill:#ffffff;fill-opacity:1;fill-rule:evenodd;stroke:none"
         d="M 110.88,535.04 L 110.94,535.04 L 111,534.98 L 111.06,534.98 L 111.12,534.92 L 111.12,534.86 L 111.18,534.8 L 111.18,534.56 L 111.12,534.5 L 111,534.38 L 110.7,534.38 L 110.7,534.44 L 110.64,534.5 L 110.58,534.5 L 110.58,534.62 L 110.52,534.74 L 110.58,534.8 L 110.58,534.86 L 110.7,534.98 L 110.76,535.04 L 110.88,535.04" />
      <path
         id="path4746"
         style="fill:#ffffff;fill-opacity:1;fill-rule:evenodd;stroke:none"
         d="M 111.72,536.3 L 111.9,536.3 L 111.96,536.24 L 112.02,536.18 L 112.02,536.06 L 112.08,536 L 112.02,535.94 L 112.02,535.82 L 111.96,535.82 L 111.9,535.76 L 111.84,535.7 L 111.6,535.7 L 111.54,535.76 L 111.48,535.82 L 111.42,535.88 L 111.42,536.12 L 111.48,536.18 L 111.48,536.24 L 111.54,536.3 L 111.72,536.3" />
      <path
         id="path4748"
         style="fill:#ffffff;fill-opacity:1;fill-rule:evenodd;stroke:none"
         d="M 109.86,536.3 L 110.04,536.3 L 110.1,536.24 L 110.1,536.18 L 110.16,536.12 L 110.16,535.88 L 110.04,535.76 L 109.98,535.7 L 109.68,535.7 L 109.68,535.76 L 109.62,535.82 L 109.56,535.82 L 109.56,536.18 L 109.62,536.24 L 109.68,536.3 L 109.86,536.3" />
      <path
         id="path4750"
         style="fill:#ffffff;fill-opacity:1;fill-rule:evenodd;stroke:none"
         d="M 121.44,536.3 L 121.68,536.3 L 121.68,536.24 L 121.74,536.18 L 121.8,536.12 L 121.8,535.88 L 121.74,535.82 L 121.68,535.82 L 121.68,535.76 L 121.62,535.7 L 121.38,535.7 L 121.26,535.82 L 121.2,535.82 L 121.2,535.88 L 121.14,535.94 L 121.14,536.06 L 121.2,536.12 L 121.2,536.18 L 121.26,536.24 L 121.32,536.3 L 121.44,536.3" />
      <path
         id="path4752"
         style="fill:#ffffff;fill-opacity:1;fill-rule:evenodd;stroke:none"
         d="M 119.64,536.3 L 119.82,536.3 L 119.88,536.24 L 119.88,536.18 L 119.94,536.12 L 119.94,535.88 L 119.76,535.7 L 119.52,535.7 L 119.4,535.82 L 119.34,535.82 L 119.34,536.18 L 119.4,536.24 L 119.46,536.3 L 119.64,536.3" />
      <path
         id="path4754"
         style="fill:#ffffff;fill-opacity:1;fill-rule:evenodd;stroke:none"
         d="M 122.82,537.86 L 122.94,537.86 L 123,537.8 L 123.06,537.8 L 123.06,537.74 L 123.12,537.68 L 123.12,537.38 L 123.06,537.32 L 123,537.26 L 122.94,537.26 L 122.88,537.2 L 122.76,537.2 L 122.7,537.26 L 122.64,537.26 L 122.58,537.32 L 122.52,537.32 L 122.52,537.38 L 122.46,537.44 L 122.46,537.62 L 122.52,537.68 L 122.52,537.74 L 122.58,537.8 L 122.64,537.8 L 122.7,537.86 L 122.82,537.86" />
      <path
         id="path4756"
         style="fill:#ffffff;fill-opacity:1;fill-rule:evenodd;stroke:none"
         d="M 108.6,537.86 L 108.66,537.86 L 108.72,537.8 L 108.78,537.8 L 108.84,537.74 L 108.84,537.68 L 108.9,537.62 L 108.9,537.44 L 108.84,537.38 L 108.84,537.32 L 108.78,537.32 L 108.72,537.26 L 108.66,537.26 L 108.66,537.2 L 108.54,537.2 L 108.42,537.26 L 108.36,537.32 L 108.3,537.32 L 108.24,537.38 L 108.24,537.68 L 108.3,537.74 L 108.36,537.8 L 108.42,537.8 L 108.42,537.86 L 108.6,537.86" />
      <path
         id="path4758"
         style="fill:#ffffff;fill-opacity:1;fill-rule:evenodd;stroke:none"
         d="M 109.2,540.02 L 109.5,540.5 L 109.8,540.98 L 110.52,541.82 L 110.88,542.18 L 111.24,542.48 L 111.66,542.84 L 112.5,543.32 L 112.92,543.5 L 113.34,543.74 L 113.76,543.86 L 114.24,543.98 L 114.66,544.04 L 115.14,544.1 L 116.04,544.1 L 116.46,544.04 L 116.94,543.98 L 117.36,543.92 L 117.84,543.74 L 118.26,543.56 L 118.68,543.38 L 119.04,543.14 L 119.88,542.54 L 120.24,542.24 L 120.6,541.88 L 120.96,541.4 L 121.32,540.98 L 121.62,540.56 L 121.92,540.02 L 121.5,539.54 L 121.14,539.06 L 120.78,538.64 L 119.94,537.92 L 119.52,537.62 L 119.16,537.32 L 118.32,536.84 L 117.84,536.66 L 117.42,536.48 L 117,536.36 L 116.58,536.3 L 116.16,536.24 L 115.74,536.18 L 114.9,536.18 L 114.48,536.24 L 113.22,536.6 L 112.8,536.78 L 112.44,536.96 L 112.02,537.2 L 111.66,537.44 L 111.24,537.74 L 110.88,538.1 L 110.52,538.4 L 110.16,538.76 L 109.86,539.18 L 109.5,539.6 L 109.2,540.02" />
      <path
         id="path4760"
         style="fill:#009263;fill-opacity:1;fill-rule:evenodd;stroke:none"
         d="M 112.68,542.3 L 112.56,542.06 L 112.32,541.1 L 112.32,540.44 L 112.38,540.02 L 112.5,539.66 L 112.68,539.36 L 112.86,539 L 113.1,538.7 L 113.34,538.46 L 113.64,538.28 L 113.94,538.04 L 114.24,537.92 L 114.6,537.8 L 114.96,537.74 L 115.26,537.68 L 115.68,537.68 L 115.98,537.74 L 116.34,537.86 L 116.76,537.98 L 117.06,538.16 L 117.42,538.4 L 117.72,538.7 L 117.96,539 L 118.08,539.12 L 118.2,539.36 L 118.32,539.48 L 118.38,539.72 L 118.5,540.08 L 118.56,540.32 L 118.56,540.98 L 118.5,541.28 L 118.32,542 L 118.2,542.3 L 118.02,542.6 L 118.86,542.12 L 119.22,541.82 L 119.82,541.22 L 120.18,540.86 L 120.42,540.5 L 120.72,540.14 L 120.12,539.42 L 119.82,539.06 L 119.46,538.82 L 119.16,538.52 L 118.86,538.28 L 118.5,538.1 L 118.14,537.86 L 117.84,537.74 L 117.48,537.56 L 117.12,537.44 L 116.82,537.32 L 116.4,537.26 L 116.1,537.2 L 115.02,537.2 L 114.3,537.32 L 114,537.38 L 113.64,537.5 L 113.34,537.62 L 112.98,537.8 L 112.68,537.92 L 112.38,538.16 L 112.08,538.34 L 111.72,538.58 L 111.48,538.88 L 111.18,539.12 L 110.88,539.42 L 110.64,539.78 L 110.4,540.08 L 110.64,540.44 L 110.94,540.8 L 111.18,541.04 L 111.48,541.34 L 111.78,541.64 L 112.08,541.88 L 112.38,542.12 L 112.68,542.3" />
      <path
         id="path4762"
         style="fill:#009263;fill-opacity:1;fill-rule:evenodd;stroke:none"
         d="M 115.38,542.96 L 115.62,542.96 L 115.8,542.9 L 116.04,542.84 L 116.22,542.78 L 116.4,542.66 L 116.58,542.54 L 116.76,542.42 L 116.94,542.3 L 117.06,542.18 L 117.18,542 L 117.3,541.82 L 117.36,541.64 L 117.48,541.4 L 117.48,541.22 L 117.54,540.98 L 117.54,540.56 L 117.48,540.38 L 117.48,540.14 L 117.36,539.96 L 117.3,539.78 L 117.18,539.6 L 117.06,539.42 L 116.94,539.3 L 116.76,539.12 L 116.58,539 L 116.4,538.88 L 116.22,538.82 L 116.04,538.76 L 115.8,538.7 L 115.62,538.64 L 115.2,538.64 L 114.96,538.7 L 114.78,538.76 L 114.54,538.82 L 114.36,538.88 L 114.18,539 L 114.06,539.12 L 113.88,539.3 L 113.76,539.42 L 113.64,539.6 L 113.4,539.96 L 113.34,540.14 L 113.28,540.38 L 113.22,540.56 L 113.22,540.98 L 113.28,541.22 L 113.34,541.4 L 113.4,541.64 L 113.64,542 L 113.76,542.18 L 113.88,542.3 L 114.06,542.42 L 114.18,542.54 L 114.36,542.66 L 114.54,542.78 L 114.78,542.84 L 114.96,542.9 L 115.2,542.96 L 115.38,542.96" />
    </g>
  </g>
</svg>
